<?xml version="1.0" encoding="utf-8"?>
<!-- Generator: Adobe Illustrator 26.5.0, SVG Export Plug-In . SVG Version: 6.00 Build 0)  -->
<svg version="1.1" id="Слой_1" xmlns="http://www.w3.org/2000/svg" xmlns:xlink="http://www.w3.org/1999/xlink" x="0px" y="0px"
	 viewBox="0 0 800 800" style="enable-background:new 0 0 800 800;" xml:space="preserve">
<style type="text/css">
	.st0{fill:none;stroke:#FFFFFF;stroke-width:50;stroke-linecap:round;stroke-linejoin:round;stroke-miterlimit:133.3333;}
</style>
<path class="st0" d="M533.3,304L533.3,304C499,430,309,433,266.8,303.7l-0.1-0.1 M533.3,304v-0.3 M266.7,203.7v-33.3
	c0-35.4,14-69.3,39.1-94.3C330.7,51,364.6,37,400,37s69.3,14,94.3,39.1c25,25,39.1,58.9,39.1,94.3v33.3 M266.7,203.7H228
	c-34.7,0-63.6,36.2-66.4,83.3l-22.2,363.6c-3.2,53,27.4,98.4,66.4,98.4h388.4c39,0,69.7-45.4,66.4-98.4L638.4,287
	c-2.9-47.1-31.8-83.3-66.4-83.3h-38.7 M266.7,203.7h266.7"/>
</svg>
