<?xml version="1.0" encoding="utf-8"?>
<!-- Generator: Adobe Illustrator 26.5.0, SVG Export Plug-In . SVG Version: 6.00 Build 0)  -->
<svg version="1.1" id="Слой_1" xmlns="http://www.w3.org/2000/svg" xmlns:xlink="http://www.w3.org/1999/xlink" x="0px" y="0px"
	 viewBox="0 0 800 800" style="enable-background:new 0 0 800 800;" xml:space="preserve">
<style type="text/css">
	.st0{fill-rule:evenodd;clip-rule:evenodd;fill:url(#SVGID_1_);}
</style>
<linearGradient id="SVGID_1_" gradientUnits="userSpaceOnUse" x1="-1.055496e-03" y1="400.0386" x2="799.9948" y2="400.0386">
	<stop  offset="0" style="stop-color:#FFA32B"/>
	<stop  offset="1" style="stop-color:#FF612E"/>
</linearGradient>
<path class="st0" d="M684.9,216.1c-6,4.7-9.4,12-9,19.6c0.2,6.8,0.4,13.6,0.4,20.6c0,221-155.6,449.6-416,449.6
	c-50.9,0-101.1-10.1-148.2-29.6c56.8-9.4,111-34.4,156.2-72.4c7.5-6.4,10.3-16.6,7-25.8c-3.2-9.2-11.9-15.5-21.7-15.7
	c-43.9-0.9-83.7-26.1-106.8-65.5c15.9-0.5,32.9-3,45.7-6.7c10.4-3,17.3-12.7,17-23.4c-0.4-10.8-8-19.9-18.5-22.2
	c-46.7-10.1-81.1-48.7-92.8-101.6c13.4,2.7,26,3.5,32.9,3.7c10.3,1.1,19.7-6,23.1-15.9c3.3-9.8-0.1-20.7-8.5-26.7
	c-32.5-23.4-67.3-67.2-67.3-119.3c0-12.8,1.6-25.6,4.7-37.8c81.3,90.5,192.3,145.1,309.9,151.5c7.9,0.4,14.4-2.7,19.2-8.2
	c4.8-5.6,6.6-13.1,5.1-20.2c-2.4-10.7-3.5-21.7-3.5-32.9c0-78.7,58.8-142.8,131-142.8c36.3,0,70.1,15.8,95.1,44.5
	c5.6,6.4,14.3,9.4,22.6,7.6c12-2.5,23.7-5.7,35.3-9.6c-6.9,7-14.4,13.2-22.7,18.5c-9.3,6-13.1,17.5-9.4,27.9
	c3.8,10.4,14.4,16.6,25.1,15.2c6.1-0.8,12.2-1.7,18.2-2.9C701.4,202.6,693.4,209.6,684.9,216.1 M794,132.9c-7-7.8-18.2-9.9-27.7-5.5
	c-1.7,0.8-3.4,1.6-5.1,2.4c7.1-12.6,12.9-26.1,17.1-40.3c2.8-9.4-0.5-19.6-8.4-25.5c-7.9-5.9-18.5-6.4-26.9-1
	c-24.3,15.6-50.4,27-77.7,34.2c-32.6-32-75.8-50.1-120.6-50.1c-98.2,0-178.1,85.2-178.1,189.8c0,4,0.1,7.9,0.3,11.8
	C260.8,235,162.7,177.1,94.4,86.9c-4.8-6.4-12.6-9.6-20.5-9.2c-8,0.6-15.2,5.2-19,12.3c-15.5,28.7-23.7,61.5-23.7,94.8
	c0,36.1,12,68.8,29.3,96.1c-8.1,3.8-13.7,11.9-13.7,21.4v2.2c0,58.3,20.8,109.1,55.6,143.5c-3.8,1.2-7.2,3.4-10,6.4
	c-5.6,6.1-7.6,14.7-5.2,22.6c17,57.1,57.4,100.9,107.7,120.8c-51.2,29-112,40.5-168.5,33.6c-11.1-1.6-21,4.9-24.8,15
	c-3.9,10.1-0.3,21.6,8.7,27.7C85.1,725.7,171.6,753,260.3,753c289.9,0,463.1-252.6,463.1-496.7c0-3.6,0-7.1-0.1-10.6
	c28.6-23.8,53.1-52.2,73.2-84.6C802,152.1,801,140.7,794,132.9"/>
</svg>
